<?xml version="1.0" ?><svg height="24px" version="1.1" viewBox="0 0 24 24" width="24px" xmlns="http://www.w3.org/2000/svg" xmlns:sketch="http://www.bohemiancoding.com/sketch/ns" xmlns:xlink="http://www.w3.org/1999/xlink"><title/><desc/><defs/><g fill="none" fill-rule="evenodd" id="miu" stroke="none" stroke-width="1"><g id="Artboard-1" transform="translate(-863.000000, -227.000000)"><g id="slice" transform="translate(215.000000, 119.000000)"/><path d="M871.001672,228.002414 C871.001672,227 872.004086,227 872.004086,227 L876.99816,227 C876.99816,227 878.000574,227 878.000574,228.002414 L878,249 L874.501672,254 L871,249 L871.001672,228.002414 Z M872.004086,232 L877.004086,232 L877.004086,248 L872.004086,248 L872.004086,232 Z M872.219971,249 L874.501672,252.259995 L876.780029,249 L872.219971,249 Z M872.004086,228.002414 L877.004086,228.002414 L877.004086,231 L872.004086,231 L872.004086,228.002414 Z" fill="#000000" id="editor-pencil-pen-edit-write-outline-stroke" transform="translate(874.500287, 240.500000) rotate(45.000000) translate(-874.500287, -240.500000) "/></g></g></svg>